<?xml version="1.0" standalone="no"?>
<!DOCTYPE svg PUBLIC "-//W3C//DTD SVG 20010904//EN"
 "http://www.w3.org/TR/2001/REC-SVG-20010904/DTD/svg10.dtd">
<svg version="1.0" xmlns="http://www.w3.org/2000/svg"
 width="363.000000pt" height="96.000000pt" viewBox="0 0 363.000000 96.000000"
 preserveAspectRatio="xMidYMid meet">
<g transform="translate(0.000000,96.000000) scale(0.100000,-0.100000)"
fill="#000000" stroke="none">
<path d="M1780 870 c-135 -32 -88 -221 83 -331 60 -39 77 -46 77 -31 0 4 -20
18 -45 31 -87 46 -159 154 -153 228 8 89 106 100 303 34 65 -23 120 -41 121
-41 0 0 -15 -49 -35 -110 -34 -105 -36 -110 -63 -110 -18 0 -28 -5 -28 -15 0
-9 9 -15 25 -15 l25 0 -26 -57 c-74 -168 -151 -225 -235 -176 -34 20 -79 103
-79 145 0 15 -4 28 -10 28 -14 0 -13 -54 2 -102 24 -81 122 -127 200 -95 19 8
50 30 69 49 36 36 85 128 95 176 l6 29 116 6 c64 3 118 5 119 4 1 -2 -9 -36
-23 -77 -14 -41 -28 -96 -31 -121 -8 -66 13 -70 74 -14 26 24 43 44 36 45 -7
0 -24 -11 -39 -25 -15 -14 -30 -25 -35 -25 -7 0 5 55 37 168 14 50 16 52 52
54 37 1 37 1 5 5 -18 2 -33 8 -33 13 0 5 20 64 45 131 25 67 45 124 45 126 0
2 -9 3 -19 3 -25 0 -51 -36 -51 -71 0 -14 -13 -63 -29 -109 l-28 -83 -109 2
c-60 1 -110 4 -112 6 -2 2 10 47 28 99 l32 96 38 0 c22 0 43 6 51 16 12 15 10
16 -18 10 -24 -6 -60 4 -163 44 -175 67 -237 79 -320 60z"/>
<path d="M445 839 c-73 -8 -134 -30 -197 -70 -206 -132 -210 -403 -6 -448 99
-22 235 17 310 89 27 26 48 43 48 40 0 -4 -15 -45 -33 -92 -59 -148 -130 -233
-217 -258 -41 -12 -89 7 -117 45 -12 17 -23 24 -27 17 -10 -17 43 -71 83 -83
71 -21 170 27 229 113 47 69 69 119 106 239 19 63 39 115 45 115 6 1 22 2 36
3 14 0 25 6 25 11 0 6 -56 10 -149 10 -103 0 -151 4 -153 11 -3 9 -10 9 -27 0
-45 -25 -17 -36 102 -41 l117 -5 -26 -40 c-67 -101 -140 -144 -255 -153 -75
-5 -128 16 -172 68 -93 110 8 324 185 391 85 32 194 34 235 3 22 -18 27 -29
25 -55 l-2 -34 24 30 c28 33 29 35 18 51 -22 34 -114 53 -207 43z"/>
<path d="M86 673 c-6 -14 -5 -15 5 -6 7 7 10 15 7 18 -3 3 -9 -2 -12 -12z"/>
<path d="M2748 665 c-7 -9 -19 -22 -25 -30 -8 -8 -9 -15 -3 -17 10 -3 -41
-179 -58 -201 -5 -7 -9 -19 -10 -27 0 -8 -16 -60 -36 -115 -39 -110 -43 -135
-22 -135 14 0 32 36 27 54 -1 5 11 45 26 88 21 61 31 77 43 72 34 -15 69 -15
98 0 40 21 53 45 54 101 0 39 4 46 24 51 34 9 30 27 -5 19 -25 -5 -29 -3 -34
23 -3 16 -18 43 -32 60 -18 22 -24 38 -20 52 8 24 -9 27 -27 5z m37 -101 c8
-20 15 -42 15 -48 0 -10 -80 -60 -86 -53 -6 6 40 137 48 137 4 0 15 -16 23
-36z m25 -114 c0 -68 -57 -108 -110 -80 -17 9 -18 14 -7 37 10 22 89 82 110
83 4 0 7 -18 7 -40z"/>
<path d="M2972 668 c-7 -7 -12 -18 -12 -25 0 -7 -5 -13 -12 -13 -8 0 -9 -3 -2
-10 10 -10 -24 -134 -54 -205 -36 -82 -89 -262 -79 -271 12 -12 37 18 37 45 0
14 12 58 26 97 l26 71 38 -10 c75 -20 130 28 130 113 0 33 4 42 23 49 33 13
41 -2 28 -53 -21 -83 -8 -116 43 -116 20 0 106 82 106 100 0 8 -20 -7 -45 -33
-49 -51 -56 -54 -75 -32 -9 11 -8 25 4 67 15 52 16 53 57 55 23 2 53 10 67 19
21 14 24 21 19 56 -8 57 -23 70 -70 57 -30 -8 -42 -19 -61 -57 -22 -44 -27
-47 -64 -48 -36 -1 -41 2 -47 25 -3 14 -19 43 -36 63 -17 21 -25 39 -19 43 6
3 10 10 10 16 0 13 -24 11 -38 -3z m288 -79 c7 -11 9 -32 6 -45 -5 -20 -12
-24 -46 -24 -22 0 -40 2 -40 5 0 12 51 85 60 85 5 0 14 -9 20 -21z m-244 -34
c9 -25 15 -47 13 -49 -2 -1 -24 -14 -49 -27 l-45 -25 24 73 c13 40 28 73 32
73 4 0 15 -20 25 -45z m24 -95 c0 -71 -52 -116 -106 -92 -19 9 -22 16 -15 34
7 21 92 88 112 88 5 0 9 -14 9 -30z"/>
<path d="M2590 656 c0 -9 -8 -16 -19 -16 -42 0 -120 -156 -121 -241 0 -50 27
-74 66 -59 16 6 37 19 48 28 27 24 66 111 66 149 0 24 5 33 22 39 21 6 21 7 2
21 -10 7 -23 30 -29 50 -10 37 -35 57 -35 29z m8 -71 c24 -53 8 -124 -44 -192
-27 -35 -58 -43 -68 -17 -12 31 24 143 67 207 23 34 31 34 45 2z"/>
<path d="M216 648 c3 -5 10 -6 15 -3 13 9 11 12 -6 12 -8 0 -12 -4 -9 -9z"/>
<path d="M800 629 c-6 -11 -16 -48 -21 -81 -6 -34 -19 -88 -30 -120 -10 -31
-19 -64 -19 -73 0 -29 34 1 49 42 29 85 129 228 147 211 3 -4 0 -16 -6 -28
-16 -30 -4 -38 21 -14 26 26 30 77 7 82 -23 5 -91 -65 -129 -133 -17 -31 -33
-54 -35 -52 -4 3 35 110 63 175 9 21 -35 14 -47 -9z"/>
<path d="M3366 631 c-9 -10 -21 -47 -26 -82 -6 -35 -20 -95 -31 -132 -21 -65
-21 -86 -1 -73 6 3 30 48 55 98 45 92 109 179 122 166 4 -3 1 -16 -5 -28 -18
-34 -1 -38 26 -7 41 48 28 90 -21 65 -25 -14 -99 -104 -118 -145 -6 -13 -14
-23 -18 -23 -4 0 8 39 27 87 19 49 34 89 34 90 0 11 -30 0 -44 -16z"/>
<path d="M1055 628 c-32 -19 -53 -49 -84 -123 -39 -94 -47 -143 -26 -151 25
-10 62 15 107 73 22 29 42 52 44 50 2 -1 -3 -25 -12 -52 -24 -82 -5 -95 66
-44 25 18 41 25 37 16 -3 -8 1 -25 10 -37 12 -17 22 -21 46 -16 40 8 93 50
113 89 16 30 14 29 -34 -15 -33 -31 -60 -48 -77 -48 -22 0 -25 4 -25 35 0 51
47 161 82 190 42 35 59 33 51 -6 -5 -25 -3 -31 8 -27 8 2 15 18 17 35 4 42
-24 51 -78 23 -45 -23 -72 -60 -96 -135 -17 -52 -58 -105 -81 -105 -7 0 -13 4
-13 8 0 28 42 164 59 193 12 19 21 39 21 44 0 15 -110 16 -135 3z m80 -18 c15
-25 -125 -230 -157 -230 -28 0 38 176 83 221 20 20 64 26 74 9z"/>
<path d="M1495 633 c-30 -8 -44 -22 -67 -67 -11 -23 -23 -43 -27 -46 -3 -3 -6
-9 -6 -15 -1 -5 -7 -36 -14 -69 -12 -55 -12 -60 7 -79 14 -13 28 -18 44 -14
30 8 98 72 98 93 0 8 -20 -6 -44 -32 -25 -25 -51 -44 -58 -42 -18 6 -22 44 -8
92 11 40 13 42 56 44 66 3 84 16 84 60 0 35 -23 83 -38 81 -4 -1 -16 -4 -27
-6z m31 -47 c11 -47 2 -61 -44 -64 -42 -3 -43 -3 -31 20 14 28 50 68 61 68 4
0 10 -11 14 -24z"/>
<path d="M1716 607 c3 -10 9 -15 12 -12 3 3 0 11 -7 18 -10 9 -11 8 -5 -6z"/>
<path d="M2830 106 c0 -2 8 -10 18 -17 15 -13 16 -12 3 4 -13 16 -21 21 -21
13z"/>
</g>
</svg>
